<svg width="32" height="32" viewBox="0 0 32 32" fill="none" xmlns="http://www.w3.org/2000/svg">
<path d="M26.0859 5.83333H5.91927C5.18993 5.83333 4.49045 6.12306 3.97473 6.63879C3.459 7.15451 3.16927 7.85399 3.16927 8.58333V9.137L16.0026 16.6867L28.8359 9.13333V8.58333C28.8359 7.85399 28.5462 7.15451 28.0305 6.63879C27.5148 6.12306 26.8153 5.83333 26.0859 5.83333Z" fill="white"/>
<path d="M28.8359 11.2618L16.4683 18.5402C16.3513 18.6088 16.2206 18.6507 16.0856 18.6627C15.9505 18.6748 15.8145 18.6567 15.6873 18.6098L15.5369 18.5402L3.16927 11.2655V23.25C3.16927 23.9793 3.459 24.6788 3.97473 25.1945C4.49045 25.7103 5.18993 26 5.91927 26H26.0859C26.8153 26 27.5148 25.7103 28.0305 25.1945C28.5462 24.6788 28.8359 23.9793 28.8359 23.25V11.2618Z" fill="white"/>
</svg>
