<svg width="32" height="32" viewBox="0 0 32 32" fill="none" xmlns="http://www.w3.org/2000/svg">
<path d="M29.7823 7.45165C28.7682 7.90186 27.6783 8.20505 26.5344 8.34172C27.7024 7.6423 28.5994 6.53401 29.0209 5.21326C27.9287 5.861 26.7182 6.33188 25.4296 6.58569C24.3994 5.4866 22.9282 4.7998 21.3019 4.7998C17.6509 4.7998 14.9681 8.2062 15.7927 11.7424C11.0942 11.5069 6.92753 9.25592 4.13786 5.83459C2.65632 8.37618 3.36953 11.701 5.887 13.3847C4.96133 13.3548 4.08848 13.101 3.32704 12.6772C3.26502 15.2969 5.14279 17.7478 7.86239 18.2933C7.06649 18.5092 6.1948 18.5598 5.30817 18.3898C6.02712 20.6362 8.11506 22.2705 10.5912 22.3165C8.21383 24.1804 5.21859 25.0131 2.21875 24.6594C4.72129 26.2638 7.69471 27.1998 10.8875 27.1998C21.3869 27.1998 27.3188 18.3324 26.9605 10.3791C28.0653 9.58094 29.0243 8.5852 29.7823 7.45165Z" fill="white"/>
</svg>
