<svg width="32" height="32" viewBox="0 0 32 32" fill="none" xmlns="http://www.w3.org/2000/svg">
	<path d="M15.9963 11.8337C13.7025 11.8337 11.8306 13.7056 11.8306 15.9994C11.8306 18.2931 13.7025 20.165 15.9963 20.165C18.29 20.165 20.1619 18.2931 20.1619 15.9994C20.1619 13.7056 18.29 11.8337 15.9963 11.8337ZM28.49 15.9994C28.49 14.2744 28.5056 12.565 28.4088 10.8431C28.3119 8.84311 27.8556 7.06811 26.3931 5.60562C24.9275 4.13999 23.1556 3.68687 21.1556 3.58999C19.4306 3.49312 17.7213 3.50874 15.9994 3.50874C14.2744 3.50874 12.565 3.49312 10.8431 3.58999C8.84312 3.68687 7.06812 4.14312 5.60562 5.60562C4.13999 7.07124 3.68687 8.84311 3.58999 10.8431C3.49312 12.5681 3.50874 14.2775 3.50874 15.9994C3.50874 17.7212 3.49312 19.4337 3.58999 21.1556C3.68687 23.1556 4.14312 24.9306 5.60562 26.3931C7.07125 27.8587 8.84312 28.3119 10.8431 28.4087C12.5681 28.5056 14.2775 28.49 15.9994 28.49C17.7244 28.49 19.4338 28.5056 21.1556 28.4087C23.1556 28.3119 24.9306 27.8556 26.3931 26.3931C27.8588 24.9275 28.3119 23.1556 28.4088 21.1556C28.5088 19.4337 28.49 17.7244 28.49 15.9994ZM15.9963 22.4087C12.4494 22.4087 9.58687 19.5462 9.58687 15.9994C9.58687 12.4525 12.4494 9.58999 15.9963 9.58999C19.5431 9.58999 22.4056 12.4525 22.4056 15.9994C22.4056 19.5462 19.5431 22.4087 15.9963 22.4087ZM22.6681 10.8244C21.84 10.8244 21.1713 10.1556 21.1713 9.32749C21.1713 8.49936 21.84 7.83061 22.6681 7.83061C23.4963 7.83061 24.165 8.49936 24.165 9.32749C24.1653 9.52413 24.1267 9.71889 24.0516 9.90061C23.9764 10.0823 23.8662 10.2474 23.7271 10.3865C23.5881 10.5255 23.423 10.6358 23.2413 10.7109C23.0595 10.7861 22.8648 10.8246 22.6681 10.8244Z" fill="white"/>
</svg>
