<svg width="32" height="32" fill="none" xmlns="http://www.w3.org/2000/svg"><path d="M29.782 7.452a11.29 11.29 0 01-3.248.89 5.664 5.664 0 002.487-3.129 11.328 11.328 0 01-3.591 1.373A5.646 5.646 0 0021.302 4.8c-3.651 0-6.334 3.406-5.51 6.942A16.054 16.054 0 014.139 5.835a5.662 5.662 0 001.749 7.55 5.631 5.631 0 01-2.56-.708c-.062 2.62 1.816 5.07 4.535 5.616a5.668 5.668 0 01-2.554.097 5.66 5.66 0 005.283 3.927 11.37 11.37 0 01-8.372 2.342 16.009 16.009 0 008.668 2.54c10.5 0 16.432-8.867 16.073-16.82a11.513 11.513 0 002.822-2.927z" fill="#fff"/></svg>