<svg width="32" height="32" fill="none" xmlns="http://www.w3.org/2000/svg"><path d="M15.996 11.834a4.175 4.175 0 00-4.165 4.165 4.174 4.174 0 004.165 4.166 4.174 4.174 0 004.166-4.166 4.174 4.174 0 00-4.166-4.165zm12.494 4.165c0-1.725.016-3.434-.081-5.156-.097-2-.553-3.775-2.016-5.237-1.466-1.466-3.237-1.92-5.237-2.016-1.725-.097-3.435-.081-5.157-.081-1.725 0-3.434-.016-5.156.081-2 .097-3.775.553-5.237 2.016C4.14 7.07 3.686 8.843 3.59 10.843c-.097 1.725-.081 3.434-.081 5.156 0 1.722-.016 3.435.081 5.157.097 2 .553 3.775 2.016 5.237 1.465 1.466 3.237 1.919 5.237 2.016 1.725.097 3.434.081 5.156.081 1.725 0 3.435.016 5.157-.081 2-.097 3.775-.553 5.237-2.016 1.466-1.466 1.919-3.237 2.016-5.237.1-1.722.081-3.432.081-5.157zm-12.494 6.41a6.4 6.4 0 01-6.41-6.41 6.4 6.4 0 016.41-6.409 6.4 6.4 0 016.41 6.41 6.4 6.4 0 01-6.41 6.409zm6.672-11.585a1.495 1.495 0 01-1.497-1.497c0-.828.669-1.496 1.497-1.496a1.495 1.495 0 011.384 2.07 1.496 1.496 0 01-1.384.923z" fill="#fff"/></svg>