<svg width="111" height="32" xmlns="http://www.w3.org/2000/svg"><path d="M0 6.872h3.07v6.154h.103c.25-1.094.637-2.063 1.16-2.906A8.355 8.355 0 016.175 8 7.319 7.319 0 018.53 6.667a8.665 8.665 0 012.764-.445c1.046 0 2.07.183 3.07.547a7.298 7.298 0 012.73 1.641c.796.73 1.433 1.653 1.91 2.77.5 1.094.751 2.393.751 3.897 0 1.527-.239 2.849-.716 3.966-.455 1.117-1.07 2.04-1.843 2.769a7.662 7.662 0 01-2.661 1.641 9.036 9.036 0 01-3.002.513 9.92 9.92 0 01-2.866-.41 7.85 7.85 0 01-2.423-1.231 8.26 8.26 0 01-1.876-2.086c-.523-.843-.921-1.823-1.194-2.94H3.07L3.139 32H.034L0 6.872zm3.173 8.24c0 .637.136 1.321.41 2.05.295.73.727 1.414 1.296 2.052.568.615 1.285 1.128 2.15 1.538.886.41 1.921.616 3.104.616 1.114 0 2.092-.171 2.934-.513.841-.342 1.547-.798 2.115-1.368a6.122 6.122 0 001.297-2.017 6.39 6.39 0 00.443-2.359 6.3 6.3 0 00-.443-2.325 5.424 5.424 0 00-1.297-2.051c-.568-.593-1.296-1.06-2.183-1.402-.865-.364-1.888-.547-3.07-.547-1.138 0-2.127.205-2.969.616-.842.41-1.547.934-2.115 1.572a6.406 6.406 0 00-1.263 2.086c-.273.73-.41 1.413-.41 2.051zm32.72 8.58l.171-8.547h-.102a19.655 19.655 0 01-1.4 3.35 14.057 14.057 0 01-1.978 2.804 8.949 8.949 0 01-2.525 1.949 6.273 6.273 0 01-2.968.718c-.75 0-1.456-.137-2.115-.41a5.934 5.934 0 01-1.74-1.095 5.96 5.96 0 01-1.16-1.64 4.754 4.754 0 01-.41-1.95c0-1.002.25-1.845.751-2.53a6.24 6.24 0 012.013-1.743 11.786 11.786 0 012.798-1.128 39.203 39.203 0 013.138-.752c1.07-.228 2.093-.433 3.07-.615.979-.206 1.82-.445 2.526-.718v-1.88H23.44V6.837h15.32v16.854h-2.867zM24.771 18.77c0 .73.273 1.356.819 1.88.569.502 1.285.753 2.15.753.864 0 1.682-.171 2.456-.513a8.732 8.732 0 002.217-1.47 12.185 12.185 0 001.911-2.12 17.864 17.864 0 001.57-2.632v-.752c-.592.205-1.286.398-2.082.58-.773.16-1.57.32-2.388.48a41.16 41.16 0 00-2.422.546c-.796.183-1.513.422-2.15.718-.614.274-1.114.616-1.5 1.026-.388.41-.58.912-.58 1.504zM41.5 6.838h3.208l-.103 6.666h.137c.25-1.025.637-1.994 1.16-2.906a8.427 8.427 0 011.979-2.393 7.96 7.96 0 012.797-1.538c1.092-.342 2.32-.456 3.685-.342V9.64c-1.501-.365-2.855-.399-4.06-.103-1.206.274-2.23.73-3.07 1.368-.82.615-1.456 1.333-1.911 2.154-.432.82-.648 1.584-.648 2.29l-.069 8.342h-3.104V6.838zm28.198 16.854l.17-8.547h-.102a19.647 19.647 0 01-1.399 3.35 14.057 14.057 0 01-1.979 2.804 8.949 8.949 0 01-2.525 1.949 6.273 6.273 0 01-2.968.718c-.75 0-1.455-.137-2.115-.41a5.932 5.932 0 01-1.74-1.095 5.956 5.956 0 01-1.16-1.64 4.752 4.752 0 01-.41-1.95c0-1.002.25-1.845.751-2.53a6.24 6.24 0 012.013-1.743 11.786 11.786 0 012.798-1.128 39.214 39.214 0 013.139-.752c1.069-.228 2.092-.433 3.07-.615.978-.206 1.82-.445 2.525-.718v-1.88H57.245V6.837h15.319v16.854h-2.866zM58.575 18.77c0 .73.273 1.356.82 1.88.568.502 1.284.753 2.148.753.865 0 1.684-.171 2.457-.513a8.73 8.73 0 002.218-1.47 12.185 12.185 0 001.91-2.12 17.864 17.864 0 001.57-2.632v-.752a20.15 20.15 0 01-2.081.58c-.774.16-1.57.32-2.389.48a41.47 41.47 0 00-2.422.546 10.81 10.81 0 00-2.15.718c-.614.274-1.114.616-1.5 1.026-.387.41-.58.912-.58 1.504zm19.766 4.957h-3.036L75.373 0h3.105l-.069 11.863-.068 11.864zm5.724 0H81.03L81.097 0h3.105l-.137 23.727zm20.642-4.855c-.204.456-.5.98-.887 1.572-.386.57-.932 1.117-1.637 1.642-.683.524-1.547.968-2.593 1.333-1.047.364-2.332.547-3.856.547-1.66 0-3.104-.217-4.332-.65-1.229-.456-2.252-1.071-3.071-1.846a7.929 7.929 0 01-1.808-2.803 10.097 10.097 0 01-.58-3.453c0-1.527.273-2.85.819-3.966.546-1.14 1.25-2.074 2.115-2.804a8.857 8.857 0 013.002-1.675 10.8 10.8 0 013.378-.547c1.205 0 2.388.194 3.548.581a8.189 8.189 0 013.105 1.744c.91.798 1.615 1.812 2.115 3.043.523 1.208.739 2.655.648 4.342l-15.591.034c.022.775.182 1.493.477 2.154a5.224 5.224 0 001.33 1.675 6.769 6.769 0 002.082 1.128c.819.25 1.74.376 2.763.376 1.001 0 1.843-.125 2.525-.376.705-.25 1.285-.547 1.74-.889.455-.364.808-.74 1.058-1.128.273-.41.477-.764.614-1.06l3.036 1.026zM95.325 8.855c-.728 0-1.444.102-2.15.307a6.266 6.266 0 00-1.876.923 5.717 5.717 0 00-1.467 1.573c-.386.616-.637 1.334-.75 2.154h12.623c-.068-.843-.307-1.573-.716-2.188a5.502 5.502 0 00-1.536-1.539 6.567 6.567 0 00-1.978-.923 7.899 7.899 0 00-2.15-.307zm15.015 14.872h-3.037L107.372 0h3.104l-.136 23.727z"/></svg>