<svg width="16" height="16" fill="none" xmlns="http://www.w3.org/2000/svg"><g clip-path="url(#clip0_1_478)"><path fill-rule="evenodd" clip-rule="evenodd" d="M11.615 1.568h-.16a2.956 2.956 0 00-1.234.267 3.17 3.17 0 00-1.034.759L8.085 3.809 6.983 2.593C6.39 1.94 5.575 1.561 4.715 1.561c-.86 0-1.676.376-2.27 1.03a3.601 3.601 0 00-.913 2.416 3.602 3.602 0 00.911 2.416l5.642 6.216 5.636-6.214a3.543 3.543 0 00.857-1.754c.12-.656.06-1.338-.173-1.96a3.405 3.405 0 00-1.16-1.553 3.015 3.015 0 00-1.63-.59zm3.153.01a4.679 4.679 0 00-.787-.733 4.244 4.244 0 00-2.526-.842l.005.003h-.007a4.167 4.167 0 00-1.896.456 4.551 4.551 0 00-1.313 1.007l-.159.174-.158-.174C7.075.529 5.92 0 4.715 0s-2.36.526-3.213 1.465C.65 2.404.171 3.677.17 5.005c0 1.329.478 2.603 1.33 3.543l6.585 7.257 6.577-7.252a5.178 5.178 0 001.25-2.563 5.481 5.481 0 00-.256-2.896 5.085 5.085 0 00-.888-1.516z" fill="#0F0F0F"/></g><defs><clipPath id="clip0_1_478"><path fill="#fff" d="M0 0h16v16H0z"/></clipPath></defs></svg>