<svg width="16" height="12" fill="none" xmlns="http://www.w3.org/2000/svg"><g clip-path="url(#clip0_1_1254)" fill="#fff"><path d="M13.602.56H2.4c-.405 0-.794.155-1.08.432a1.447 1.447 0 00-.45 1.041v.297L8 6.374l7.13-4.046v-.295c0-.39-.162-.765-.448-1.041a1.557 1.557 0 00-1.08-.432z"/><path d="M15.13 3.468l-6.87 3.9a.523.523 0 01-.435.037l-.083-.038L.87 3.47v6.42c0 .391.16.766.447 1.042.287.277.676.432 1.08.432h11.204c.406 0 .794-.155 1.08-.432.287-.276.448-.65.448-1.041V3.468z"/></g><defs><clipPath id="clip0_1_1254"><path fill="#fff" d="M0 0h16v12H0z"/></clipPath></defs></svg>