<svg width="16" height="13" fill="none" xmlns="http://www.w3.org/2000/svg"><g clip-path="url(#clip0_1_1250)"><path d="M15.313 1.658a6.398 6.398 0 01-1.804.482A3.083 3.083 0 0014.89.446a6.39 6.39 0 01-1.995.743 3.174 3.174 0 00-2.293-.967c-2.029 0-3.52 1.845-3.06 3.76a8.996 8.996 0 01-6.476-3.2C.243 2.16.64 3.96 2.038 4.872a3.19 3.19 0 01-1.422-.383C.58 5.908 1.624 7.235 3.136 7.53a3.227 3.227 0 01-1.42.052c.4 1.217 1.56 2.102 2.935 2.127A6.433 6.433 0 010 10.979a9.06 9.06 0 004.816 1.376c5.833 0 9.128-4.803 8.93-9.111a6.31 6.31 0 001.567-1.586z" fill="#fff"/></g><defs><clipPath id="clip0_1_1250"><path fill="#fff" d="M0 0h16v13H0z"/></clipPath></defs></svg>